# xmcd
#
# Track frame offsets: 
#        150
#        14007
#        29942
#        51240
#        66577
#        83120
#        95057
#        109680
#        135120
#        153370
#        169145
#        195572
#        212447
#        228312
#
# Disc length: 3309 seconds
#
# Revision: 1
# Processed by: cddbd v1.5.1PL0 Copyright (c) Steve Scherf et al.
# Submitted via: ExactAudioCopy v0.95a5
#
DISCID=c00ceb0e
DTITLE=John Denver - The Best Of [CD 2)
DYEAR=1900
DGENRE=Country
TTITLE0=Thank God I'm A Country Boy
TTITLE1=Two Different Directions
TTITLE2=Back Home Again
TTITLE3=I'm Sorry
TTITLE4=Leaving On A Jetplane
TTITLE5=Love Again
TTITLE6=Dreamland Express
TTITLE7=Amazon (Let This Be A Voice)
TTITLE8=The Chosen Ones
TTITLE9=Postcard From Paris
TTITLE10=Stoneheaven Sunset
TTITLE11=I Want To Live
TTITLE12=Higher Ground
TTITLE13=Ponies
EXTD=
EXTT0=
EXTT1=
EXTT2=
EXTT3=
EXTT4=
EXTT5=
EXTT6=
EXTT7=
EXTT8=
EXTT9=
EXTT10=
EXTT11=
EXTT12=
EXTT13=
PLAYORDER=
